<svg width="210" height="40" viewBox="0 0 210 40" fill="none" xmlns="http://www.w3.org/2000/svg">
<mask id="mask0_2434_413" style="mask-type:alpha" maskUnits="userSpaceOnUse" x="6" y="5" width="198" height="30">
<path fill-rule="evenodd" clip-rule="evenodd" d="M185.396 33.4431L185.393 33.4421C183.404 32.8321 181.76 32.004 180.51 30.9248L180.229 30.6821C180.062 30.538 180.01 30.3016 180.099 30.1002L182.222 25.3351C182.355 25.037 182.733 24.944 182.989 25.1464L183.494 25.5456C184.48 26.3253 185.706 26.9851 187.189 27.5124C188.686 28.0102 190.172 28.256 191.652 28.256C193.556 28.256 194.79 27.9443 195.51 27.4706L195.52 27.4641C196.265 26.9865 196.542 26.4468 196.542 25.798C196.542 25.318 196.382 24.9773 196.052 24.6928L196.034 24.6769L196.016 24.6601C195.61 24.2731 195.062 23.948 194.338 23.7067C193.539 23.4406 192.43 23.1315 190.999 22.7799C188.951 22.2936 187.26 21.801 185.939 21.2988L185.932 21.2964C184.541 20.757 183.335 19.9179 182.321 18.791L182.312 18.7812L182.303 18.7713C181.223 17.5057 180.734 15.8598 180.734 13.942C180.734 12.2832 181.181 10.7606 182.077 9.40141L182.08 9.39729C183.015 7.99523 184.381 6.92129 186.116 6.15019L186.121 6.14783C187.902 5.36866 190.023 5 192.45 5C194.156 5 195.836 5.21334 197.488 5.63972C199.148 6.06804 200.61 6.69153 201.859 7.52395L202.198 7.75017C202.395 7.88186 202.473 8.13429 202.384 8.35426L200.455 13.1061C200.34 13.3886 200.002 13.5036 199.739 13.3492L199.24 13.0564C198.147 12.4148 197.01 11.9298 195.828 11.599C194.64 11.2663 193.502 11.104 192.412 11.104C190.545 11.104 189.33 11.4245 188.612 11.914C187.928 12.3961 187.636 12.9717 187.636 13.714C187.636 14.2061 187.793 14.5491 188.097 14.8273C188.537 15.2047 189.109 15.5237 189.84 15.7673C190.638 16.0332 191.746 16.342 193.176 16.6932C195.173 17.1544 196.843 17.6477 198.171 18.1783C199.584 18.7167 200.793 19.5557 201.786 20.6882C202.9 21.9291 203.406 23.5564 203.406 25.456C203.406 27.1192 202.944 28.6439 202.021 30.0024C201.106 31.3863 199.734 32.4452 197.981 33.2122C196.2 33.9913 194.079 34.36 191.652 34.36C189.504 34.36 187.417 34.0548 185.396 33.4431ZM201.19 29.446C202.001 28.2553 202.406 26.9253 202.406 25.456C202.406 23.7333 201.95 22.3653 201.038 21.352C200.151 20.3387 199.075 19.5913 197.808 19.11C196.541 18.6033 194.92 18.122 192.944 17.666C191.5 17.3113 190.36 16.9947 189.524 16.716C188.688 16.4373 187.991 16.0573 187.434 15.576C186.902 15.0947 186.636 14.474 186.636 13.714C186.636 12.6247 187.105 11.7507 188.042 11.092C189.005 10.4333 190.461 10.104 192.412 10.104C193.603 10.104 194.831 10.2813 196.098 10.636C197.048 10.902 197.969 11.2606 198.862 11.7119C198.989 11.7761 199.116 11.8422 199.242 11.9102C199.51 12.055 199.849 11.9406 199.963 11.6581L201.151 8.73387C201.24 8.5139 201.163 8.26043 200.96 8.13634C199.895 7.48281 198.654 6.97336 197.238 6.608C195.667 6.20267 194.071 6 192.45 6C190.119 6 188.143 6.35467 186.522 7.064C184.926 7.77333 183.723 8.736 182.912 9.952C182.127 11.1427 181.734 12.4727 181.734 13.942C181.734 15.69 182.177 17.0833 183.064 18.122C183.976 19.1353 185.053 19.8827 186.294 20.364C187.561 20.8453 189.207 21.3267 191.234 21.808C192.678 22.1627 193.818 22.4793 194.654 22.758C195.49 23.0367 196.174 23.4293 196.706 23.936C197.263 24.4173 197.542 25.038 197.542 25.798C197.542 26.8367 197.048 27.6727 196.06 28.306C195.097 28.9393 193.628 29.256 191.652 29.256C190.056 29.256 188.46 28.99 186.864 28.458C185.672 28.0349 184.618 27.5243 183.703 26.9261C183.597 26.8566 183.493 26.786 183.39 26.7142C183.123 26.527 182.745 26.6199 182.612 26.9179L181.315 29.8288C181.225 30.0302 181.277 30.2677 181.45 30.4043C182.532 31.2579 183.944 31.9518 185.686 32.486C187.611 33.0687 189.6 33.36 191.652 33.36C193.983 33.36 195.959 33.0053 197.58 32.296C199.201 31.5867 200.405 30.6367 201.19 29.446Z" fill="black"/>
<path fill-rule="evenodd" clip-rule="evenodd" d="M172.144 32.98C171.944 32.98 171.764 32.8614 171.685 32.6783L169.285 27.1257C169.206 26.9426 169.026 26.824 168.826 26.824H156.186C155.985 26.824 155.804 26.9437 155.726 27.1281L153.363 32.6759C153.284 32.8603 153.103 32.98 152.903 32.98H148.914C148.552 32.98 148.31 32.6057 148.458 32.2748L159.978 6.67481C160.059 6.49538 160.238 6.37999 160.434 6.37999H164.652C164.849 6.37999 165.027 6.49513 165.108 6.67427L176.664 32.2743C176.814 32.6052 176.572 32.98 176.209 32.98H172.144ZM156.847 27.824C156.646 27.824 156.465 27.9437 156.387 28.1281L154.024 33.6759C153.945 33.8603 153.764 33.98 153.564 33.98H147.368C147.005 33.98 146.763 33.6057 146.912 33.2748L159.332 5.67481C159.413 5.49538 159.591 5.37999 159.788 5.37999H165.298C165.494 5.37999 165.673 5.49513 165.754 5.67427L178.213 33.2743C178.362 33.6052 178.12 33.98 177.757 33.98H171.486C171.287 33.98 171.107 33.8614 171.027 33.6783L168.628 28.1257C168.549 27.9426 168.369 27.824 168.169 27.824H156.847ZM162.966 12.3883C162.792 11.9851 162.22 11.9859 162.047 12.3896L157.825 22.2512C157.684 22.5811 157.926 22.948 158.285 22.948H166.761C167.12 22.948 167.362 22.58 167.22 22.2499L162.966 12.3883ZM162.969 14.9211C162.795 14.5179 162.223 14.5187 162.051 14.9224L159.341 21.2512C159.2 21.5811 159.442 21.948 159.801 21.948H165.24C165.6 21.948 165.842 21.58 165.7 21.2499L162.969 14.9211Z" fill="black"/>
<path fill-rule="evenodd" clip-rule="evenodd" d="M144.102 17.616C144.378 17.616 144.602 17.8399 144.602 18.116V23.296C144.602 23.5721 144.378 23.796 144.102 23.796H132.258C131.982 23.796 131.758 24.0198 131.758 24.296V33.48C131.758 33.7561 131.534 33.98 131.258 33.98H125.318C125.042 33.98 124.818 33.7561 124.818 33.48V5.87999C124.818 5.60385 125.042 5.37999 125.318 5.37999H145.736C146.012 5.37999 146.236 5.60385 146.236 5.87999V11.022C146.236 11.2981 146.012 11.522 145.736 11.522H132.258C131.982 11.522 131.758 11.7458 131.758 12.022V17.116C131.758 17.3921 131.982 17.616 132.258 17.616H144.102ZM130.758 11.022C130.758 10.7458 130.982 10.522 131.258 10.522H144.736C145.012 10.522 145.236 10.2981 145.236 10.022V6.87999C145.236 6.60385 145.012 6.37999 144.736 6.37999H126.318C126.042 6.37999 125.818 6.60385 125.818 6.87999V32.48C125.818 32.7561 126.042 32.98 126.318 32.98H130.258C130.534 32.98 130.758 32.7561 130.758 32.48V23.296C130.758 23.0198 130.982 22.796 131.258 22.796H143.102C143.378 22.796 143.602 22.5721 143.602 22.296V19.116C143.602 18.8398 143.378 18.616 143.102 18.616H131.258C130.982 18.616 130.758 18.3921 130.758 18.116V11.022Z" fill="black"/>
<path fill-rule="evenodd" clip-rule="evenodd" d="M117.771 27.838C118.047 27.838 118.271 28.0619 118.271 28.338V33.48C118.271 33.7561 118.047 33.98 117.771 33.98H96.821C96.5449 33.98 96.321 33.7561 96.321 33.48V5.87999C96.321 5.60385 96.5449 5.37999 96.821 5.37999H117.239C117.515 5.37999 117.739 5.60385 117.739 5.87999V11.022C117.739 11.2981 117.515 11.522 117.239 11.522H103.761C103.485 11.522 103.261 11.7458 103.261 12.022V15.938C103.261 16.2141 103.485 16.438 103.761 16.438H115.605C115.881 16.438 116.105 16.6619 116.105 16.938V22.004C116.105 22.2801 115.881 22.504 115.605 22.504H103.761C103.485 22.504 103.261 22.7279 103.261 23.004V27.338C103.261 27.6141 103.485 27.838 103.761 27.838H117.771ZM102.261 22.004C102.261 21.7278 102.485 21.504 102.761 21.504H114.605C114.881 21.504 115.105 21.2801 115.105 21.004V17.938C115.105 17.6618 114.881 17.438 114.605 17.438H102.761C102.485 17.438 102.261 17.2141 102.261 16.938V11.022C102.261 10.7458 102.485 10.522 102.761 10.522H116.239C116.515 10.522 116.739 10.2981 116.739 10.022V6.87999C116.739 6.60385 116.515 6.37999 116.239 6.37999H97.821C97.5449 6.37999 97.321 6.60385 97.321 6.87999V32.48C97.321 32.7561 97.5449 32.98 97.821 32.98H116.771C117.047 32.98 117.271 32.7561 117.271 32.48V29.338C117.271 29.0619 117.047 28.838 116.771 28.838H102.761C102.485 28.838 102.261 28.6141 102.261 28.338V22.004Z" fill="black"/>
<path fill-rule="evenodd" clip-rule="evenodd" d="M83.6295 33.98C83.466 33.98 83.3129 33.9001 83.2194 33.7661L78.1109 26.4427C78.0146 26.3046 77.8551 26.2247 77.6867 26.2266C77.6041 26.2275 77.5186 26.228 77.4303 26.228H72.9263C72.6502 26.228 72.4263 26.4519 72.4263 26.728V33.48C72.4263 33.7561 72.2025 33.98 71.9263 33.98H65.9863C65.7102 33.98 65.4863 33.7561 65.4863 33.48V5.87999C65.4863 5.60385 65.7102 5.37999 65.9863 5.37999H77.4303C79.8427 5.37999 81.9884 5.77736 83.8407 6.60627C85.7198 7.43582 87.1979 8.64559 88.2275 10.2472C89.2586 11.8512 89.7543 13.7303 89.7543 15.842C89.7543 18.0129 89.2163 19.9376 88.1008 21.5701C87.3316 22.7221 86.3255 23.656 85.102 24.3777C84.8417 24.5312 84.7568 24.874 84.9301 25.1215L90.5803 33.1933C90.8122 33.5246 90.5752 33.98 90.1707 33.98H83.6295ZM83.4576 24.7618C83.2717 24.4962 83.3842 24.1271 83.6791 23.9923C83.796 23.9389 83.911 23.8838 84.0239 23.827C85.3979 23.1364 86.4807 22.1974 87.2723 21.01C88.2603 19.566 88.7543 17.8433 88.7543 15.842C88.7543 13.8913 88.2983 12.2067 87.3863 10.788C86.4743 9.36932 85.157 8.27999 83.4343 7.51999C81.737 6.75999 79.7357 6.37999 77.4303 6.37999H66.9863C66.7102 6.37999 66.4863 6.60385 66.4863 6.87999V32.48C66.4863 32.7561 66.7102 32.98 66.9863 32.98H70.9263C71.2025 32.98 71.4263 32.7561 71.4263 32.48V25.728C71.4263 25.4519 71.6502 25.228 71.9263 25.228H77.4303C77.7194 25.228 77.9627 25.2229 78.1602 25.2127C78.3431 25.2033 78.5215 25.2835 78.6263 25.4337L83.7411 32.7661C83.8346 32.9001 83.9877 32.98 84.1512 32.98H88.25C88.6545 32.98 88.8916 32.5246 88.6596 32.1933L83.4576 24.7618ZM82.7763 15.842C82.7763 14.385 82.3111 13.3892 81.4711 12.7019C80.6048 11.9932 79.2348 11.56 77.2023 11.56H72.9263C72.6502 11.56 72.4263 11.7838 72.4263 12.06V19.662C72.4263 19.9381 72.6502 20.162 72.9263 20.162H77.2023C79.2307 20.162 80.5994 19.7305 81.4659 19.0243C82.3128 18.3095 82.7763 17.2954 82.7763 15.842ZM71.9263 21.162C71.6502 21.162 71.4263 20.9381 71.4263 20.662V11.06C71.4263 10.7838 71.6502 10.56 71.9263 10.56H77.2023C79.3557 10.56 80.9897 11.016 82.1043 11.928C83.219 12.84 83.7763 14.1447 83.7763 15.842C83.7763 17.5393 83.219 18.8567 82.1043 19.794C80.9897 20.706 79.3557 21.162 77.2023 21.162H71.9263Z" fill="black"/>
<path fill-rule="evenodd" clip-rule="evenodd" d="M55.224 32.98C55.0245 32.98 54.8442 32.8614 54.765 32.6783L52.3657 27.1257C52.2866 26.9426 52.1062 26.824 51.9068 26.824H39.2659C39.0655 26.824 38.8844 26.9437 38.8059 27.1281L36.4429 32.6759C36.3644 32.8603 36.1833 32.98 35.9829 32.98H31.9947C31.6319 32.98 31.3898 32.6057 31.5387 32.2748L43.0587 6.67481C43.1395 6.49538 43.3179 6.37999 43.5147 6.37999H47.7325C47.9291 6.37999 48.1074 6.49513 48.1882 6.67427L59.7448 32.2743C59.8942 32.6052 59.6522 32.98 59.2891 32.98H55.224ZM39.9269 27.824C39.7265 27.824 39.5454 27.9437 39.4669 28.1281L37.1039 33.6759C37.0254 33.8603 36.8443 33.98 36.6439 33.98H30.4481C30.0853 33.98 29.8432 33.6057 29.9921 33.2748L42.4121 5.67481C42.4929 5.49538 42.6713 5.37999 42.8681 5.37999H48.3783C48.5748 5.37999 48.7531 5.49513 48.834 5.67427L61.2934 33.2743C61.4428 33.6052 61.2008 33.98 60.8377 33.98H54.5668C54.3673 33.98 54.1869 33.8614 54.1078 33.6783L51.7085 28.1257C51.6294 27.9426 51.449 27.824 51.2495 27.824H39.9269ZM46.0462 12.3883C45.8723 11.9851 45.3003 11.9859 45.1275 12.3896L40.9057 22.2512C40.7644 22.5811 41.0065 22.948 41.3653 22.948H49.8412C50.2006 22.948 50.4427 22.58 50.3003 22.2499L46.0462 12.3883ZM46.0497 14.9211C45.8758 14.5179 45.3038 14.5187 45.131 14.9224L42.4216 21.2512C42.2803 21.5811 42.5223 21.948 42.8812 21.948H48.3207C48.6802 21.948 48.9222 21.58 48.7798 21.2499L46.0497 14.9211Z" fill="black"/>
<path fill-rule="evenodd" clip-rule="evenodd" d="M6.5 11.56C6.22386 11.56 6 11.3361 6 11.06V5.87999C6 5.60385 6.22386 5.37999 6.5 5.37999H30.072C30.3481 5.37999 30.572 5.60385 30.572 5.87999V11.06C30.572 11.3361 30.3481 11.56 30.072 11.56H22.256C21.9799 11.56 21.756 11.7838 21.756 12.06V33.48C21.756 33.7561 21.5321 33.98 21.256 33.98H15.316C15.0399 33.98 14.816 33.7561 14.816 33.48V12.06C14.816 11.7838 14.5921 11.56 14.316 11.56H6.5ZM15.316 10.56C15.5921 10.56 15.816 10.7838 15.816 11.06V32.48C15.816 32.7561 16.0399 32.98 16.316 32.98H20.256C20.5321 32.98 20.756 32.7561 20.756 32.48V11.06C20.756 10.7838 20.9799 10.56 21.256 10.56H29.072C29.3481 10.56 29.572 10.3361 29.572 10.06V6.87999C29.572 6.60385 29.3481 6.37999 29.072 6.37999H7.5C7.22386 6.37999 7 6.60385 7 6.87999V10.06C7 10.3361 7.22386 10.56 7.5 10.56H15.316Z" fill="black"/>
</mask>
<g mask="url(#mask0_2434_413)">
<path d="M3.8479 0.979996H205.848V38.98H3.8479V0.979996Z" fill="url(#paint0_linear_2434_413)"/>
</g>
<defs>
<linearGradient id="paint0_linear_2434_413" x1="3.8479" y1="19.98" x2="205.848" y2="19.98" gradientUnits="userSpaceOnUse">
<stop stop-color="#0458E5"/>
<stop offset="1" stop-color="#FE7759"/>
</linearGradient>
</defs>
</svg>
