<svg width="50" height="50" viewBox="0 0 50 50" fill="none" xmlns="http://www.w3.org/2000/svg">
<path d="M23.044 9.12C23.044 8.84386 22.8202 8.62 22.544 8.62H13.8C13.5239 8.62 13.3 8.39614 13.3 8.12V4.5C13.3 4.22386 13.5239 4 13.8 4H37.7481C38.0242 4 38.2481 4.22386 38.2481 4.5V8.12C38.2481 8.39614 38.0242 8.62 37.7481 8.62H29.004C28.7279 8.62 28.504 8.84386 28.504 9.12V32.9C28.504 33.1761 28.2802 33.4 28.004 33.4H23.544C23.2679 33.4 23.044 33.1761 23.044 32.9V9.12Z" fill="white"/>
<path d="M42.1356 45.54C41.3956 45.54 40.7289 45.3833 40.1356 45.07C39.5489 44.7567 39.0856 44.3233 38.7456 43.77C38.4123 43.2167 38.2456 42.5933 38.2456 41.9C38.2456 41.2067 38.4123 40.5833 38.7456 40.03C39.0856 39.4767 39.5489 39.0433 40.1356 38.73C40.7289 38.4167 41.3956 38.26 42.1356 38.26C42.8756 38.26 43.5389 38.4167 44.1256 38.73C44.7189 39.0433 45.1823 39.4767 45.5156 40.03C45.8556 40.5833 46.0256 41.2067 46.0256 41.9C46.0256 42.5933 45.8556 43.2167 45.5156 43.77C45.1823 44.3233 44.7189 44.7567 44.1256 45.07C43.5389 45.3833 42.8756 45.54 42.1356 45.54ZM42.1356 43.9C42.4889 43.9 42.8089 43.8167 43.0956 43.65C43.3823 43.4833 43.6089 43.25 43.7756 42.95C43.9423 42.6433 44.0256 42.2933 44.0256 41.9C44.0256 41.5067 43.9423 41.16 43.7756 40.86C43.6089 40.5533 43.3823 40.3167 43.0956 40.15C42.8089 39.9833 42.4889 39.9 42.1356 39.9C41.7823 39.9 41.4623 39.9833 41.1756 40.15C40.8889 40.3167 40.6623 40.5533 40.4956 40.86C40.3289 41.16 40.2456 41.5067 40.2456 41.9C40.2456 42.2933 40.3289 42.6433 40.4956 42.95C40.6623 43.25 40.8889 43.4833 41.1756 43.65C41.4623 43.8167 41.7823 43.9 42.1356 43.9Z" fill="white"/>
<path d="M33.4167 38.4H35.3967V45.4H33.4167V38.4Z" fill="white"/>
<path d="M27.724 45.54C26.9907 45.54 26.3307 45.3867 25.744 45.08C25.164 44.7667 24.7074 44.3333 24.374 43.78C24.0407 43.2267 23.874 42.6 23.874 41.9C23.874 41.2 24.0407 40.5733 24.374 40.02C24.7074 39.4667 25.164 39.0367 25.744 38.73C26.3307 38.4167 26.9907 38.26 27.724 38.26C28.364 38.26 28.9407 38.3733 29.454 38.6C29.9674 38.8267 30.394 39.1533 30.734 39.58L29.474 40.72C29.0207 40.1733 28.4707 39.9 27.824 39.9C27.444 39.9 27.104 39.9833 26.804 40.15C26.5107 40.3167 26.2807 40.5533 26.114 40.86C25.954 41.16 25.874 41.5067 25.874 41.9C25.874 42.2933 25.954 42.6433 26.114 42.95C26.2807 43.25 26.5107 43.4833 26.804 43.65C27.104 43.8167 27.444 43.9 27.824 43.9C28.4707 43.9 29.0207 43.6267 29.474 43.08L30.734 44.22C30.394 44.6467 29.9674 44.9733 29.454 45.2C28.9407 45.4267 28.364 45.54 27.724 45.54Z" fill="white"/>
<path d="M19.0454 38.4H21.0254V45.4H19.0454V38.4ZM20.3954 36.31H22.2954L20.4154 37.83H19.0554L20.3954 36.31Z" fill="white"/>
<path d="M15.8487 38.4V45.4H14.2187L11.1287 41.67V45.4H9.18872V38.4H10.8187L13.9087 42.13V38.4H15.8487Z" fill="white"/>
<path d="M4 38.4H5.98V45.4H4V38.4Z" fill="white"/>
</svg>
